<?xml version="1.0" encoding="UTF-8" standalone="no"?>
<!-- Created with Inkscape (http://www.inkscape.org/) -->

<svg
   version="1.1"
   id="svg9"
   width="4153"
   height="304"
   viewBox="0 0 4153 304"
   sodipodi:docname="level1.svg"
   inkscape:version="1.1.2 (b8e25be833, 2022-02-05)"
   xmlns:inkscape="http://www.inkscape.org/namespaces/inkscape"
   xmlns:sodipodi="http://sodipodi.sourceforge.net/DTD/sodipodi-0.dtd"
   xmlns:xlink="http://www.w3.org/1999/xlink"
   xmlns="http://www.w3.org/2000/svg"
   xmlns:svg="http://www.w3.org/2000/svg">
  <defs
     id="defs13" />
  <sodipodi:namedview
     id="namedview11"
     pagecolor="#ffffff"
     bordercolor="#666666"
     borderopacity="1.0"
     inkscape:pageshadow="2"
     inkscape:pageopacity="0.0"
     inkscape:pagecheckerboard="0"
     showgrid="false"
     inkscape:zoom="0.41102817"
     inkscape:cx="2076.5"
     inkscape:cy="152.0577"
     inkscape:window-width="1920"
     inkscape:window-height="1001"
     inkscape:window-x="-9"
     inkscape:window-y="-9"
     inkscape:window-maximized="1"
     inkscape:current-layer="g15" />
  <g
     inkscape:groupmode="layer"
     inkscape:label="Image"
     id="g15">
    <image
       width="4153"
       height="304"
       preserveAspectRatio="none"
       xlink:href="mission1_level_black%20white.bmp"
       id="image17" />
    <path
       style="fill:#000000"
       d="M 2719.5,169 H 2694 v -5 -5 h 25.5 25.5 v 5 5 z"
       id="path290" />
    <path
       style="fill:#000000"
       d="m 2468,169 h -71 v -5 -5 h 71 71 v 5 5 z"
       id="path288" />
    <path
       style="fill:#000000"
       d="M 2179.5,171 H 2158 v -6 -6 h 21.5 21.5 v 6 6 z"
       id="path286" />
    <path
       style="fill:#000000"
       d="M 2369.5,179 H 2346 v -5.5 -5.5 h 23.5 23.5 v 5.5 5.5 z"
       id="path284" />
    <path
       style="fill:#000000"
       d="M 3154.5,182 H 3100 v -3.5 -3.5 h 54.5 54.5 v 3.5 3.5 z"
       id="path282" />
    <path
       style="fill:#000000"
       d="m 1243,206 h -71 v -3 -3 h 71 71 v 3 3 z"
       id="path280" />
    <path
       style="fill:#000000"
       d="m 1438,209 h -83 v -5 -5 h 83 83 v 5 5 z"
       id="path278" />
    <path
       style="fill:#000000"
       d="m 2615,211 h -47 v -6 -6 h 47 47 v 6 6 z"
       id="path276" />
    <path
       style="fill:#000000"
       d="m 2480,212 h -18 v -6.5 -6.5 h 18 18 v 6.5 6.5 z"
       id="path274" />
    <path
       style="fill:#000000"
       d="m 1025,214 h -89 v -6.5 -6.5 h 89 89 v 6.5 6.5 z"
       id="path272" />
    <path
       style="fill:#000000"
       d="m 2299,219 h -38 v -5.5 -5.5 h 38 38 v 5.5 5.5 z"
       id="path270" />
    <path
       style="fill:#000000"
       d="m 2107,220 h -38 v -5.5 -5.5 h 38 38 v 5.5 5.5 z"
       id="path268" />
    <path
       style="fill:#000000"
       d="M 2886.5,235 H 2869 v -6 -6 h 12 12 v -8 -8 h 29.5 29.5 v 8.5 8.5 h -24 -24 v 5.5 5.5 z"
       id="path266" />
    <path
       style="fill:#000000"
       d="M 2462.5,252 H 2444 v -6.5 -6.5 h 18.5 18.5 v 6.5 6.5 z"
       id="path264" />
    <path
       style="fill:#000000"
       d="M 1559.5,253 H 1526 v -6.5 -6.5 h 33.5 33.5 v 6.5 6.5 z"
       id="path262" />
    <path
       style="fill:#000000"
       d="m 1143,254 h -33 v -7.5 -7.5 h 33 33 v 7.5 7.5 z"
       id="path260" />
    <path
       style="fill:#000000"
       d="M 887.5,254 H 854 v -8 -8 h 33.5 33.5 v 8 8 z"
       id="path258" />
    <path
       style="fill:#000000"
       d="M 2076.5,304 H 0 v -31 -31 l 18.25,0.0114 18.25,0.0114 213.5,2.47598 213.5,2.47598 106.75,0.0126 L 677,247 v 16.5 16.5 l 559.25,-0.0448 559.25,-0.0448 13.5,-12.42332 13.5,-12.42332 29.25,-0.0318 L 1881,255 v 11.5 11.5 h 730.8388 730.8387 l 20.2515,-21 20.2515,-21 h 26.9475 26.9476 l 16.8568,-14.5 16.8569,-14.5 24.3553,-0.0268 24.3554,-0.0268 13.338,-14.47316 13.338,-14.47316 h 27.6832 27.6832 l 18.8821,-16.5 18.882,-16.5 H 3896.1533 4153 v 79.5 79.5 H 2076.5 Z"
       id="path99" />
  </g>
</svg>
