<?xml version="1.0" encoding="UTF-8" standalone="no"?>
<!-- Created with Inkscape (http://www.inkscape.org/) -->

<svg
   id="svg2985"
   version="1.1"
   inkscape:version="1.1.2 (b8e25be833, 2022-02-05)"
   width="4152"
   height="352"
   sodipodi:docname="Midground2.svg"
   xmlns:inkscape="http://www.inkscape.org/namespaces/inkscape"
   xmlns:sodipodi="http://sodipodi.sourceforge.net/DTD/sodipodi-0.dtd"
   xmlns:xlink="http://www.w3.org/1999/xlink"
   xmlns="http://www.w3.org/2000/svg"
   xmlns:svg="http://www.w3.org/2000/svg"
   xmlns:rdf="http://www.w3.org/1999/02/22-rdf-syntax-ns#"
   xmlns:cc="http://creativecommons.org/ns#"
   xmlns:dc="http://purl.org/dc/elements/1.1/">
  <metadata
     id="metadata2991">
    <rdf:RDF>
      <cc:Work
         rdf:about="">
        <dc:format>image/svg+xml</dc:format>
        <dc:type
           rdf:resource="http://purl.org/dc/dcmitype/StillImage" />
      </cc:Work>
    </rdf:RDF>
  </metadata>
  <defs
     id="defs2989" />
  <sodipodi:namedview
     pagecolor="#ffffff"
     bordercolor="#666666"
     borderopacity="1"
     objecttolerance="10"
     gridtolerance="10"
     guidetolerance="10"
     inkscape:pageopacity="0"
     inkscape:pageshadow="2"
     inkscape:window-width="2400"
     inkscape:window-height="1271"
     id="namedview2987"
     showgrid="false"
     inkscape:zoom="0.4238921"
     inkscape:cx="2074.8205"
     inkscape:cy="175.75227"
     inkscape:window-x="-2409"
     inkscape:window-y="-9"
     inkscape:window-maximized="1"
     inkscape:current-layer="svg2985"
     inkscape:pagecheckerboard="0" />
  <image
     width="4152"
     height="352"
     xlink:href="file:///D:/%5BSchool%5D/%5BDAE%5D/%5B2nd%20Semester%5D/%5BExam%5D/Programming/R&amp;D/Background/Assets/collision.pbm"
     id="image2993"
     x="0"
     y="0" />
  <path
     style="fill:#000000"
     d="M 2179.5,213 H 2158 v -3 -3 h 21.5 21.5 v 3 3 z"
     id="path77" />
  <path
     style="fill:#000000"
     d="M 2719.5,215 H 2694 v -4 -4 h 25.5 25.5 v 4 4 z"
     id="path75" />
  <path
     style="fill:#000000"
     d="M 2374.25,220.98295 2354,221 v -3 -3 h 17.8788 17.8789 l 5.8123,-3.5 5.8123,-3.5 H 2469.1912 2537 v 3.5 3.5 l -66.25,0.0171 -66.25,0.017 -5,2.9659 -5,2.9659 -20.25,0.017 z"
     id="path73" />
  <path
     style="fill:#000000"
     d="m 1441,254 h -75 v -3 -3 h 75 75 v 3 3 z"
     id="path71" />
  <path
     style="fill:#000000"
     d="M 1242.5,254 H 1179 v -3 -3 h 63.5 63.5 v 3 3 z"
     id="path69" />
  <path
     style="fill:#000000"
     d="M 2623.5,255 H 2583 v -4 -4 h 40.5 40.5 v 4 4 z"
     id="path67" />
  <path
     style="fill:#000000"
     d="M 2479.5,256 H 2462 v -4.5 -4.5 h 17.5 17.5 v 4.5 4.5 z"
     id="path65" />
  <path
     style="fill:#000000"
     d="M 1025.5,257 H 947 v -4.5 -4.5 h 78.5 78.5 v 4.5 4.5 z"
     id="path63" />
  <path
     style="fill:#000000"
     d="M 2108.5,261 H 2071 v -3 -3 h 37.5 37.5 v 3 3 z"
     id="path61" />
  <path
     style="fill:#000000"
     d="M 2301.5,262 H 2265 v -3.5 -3.5 h 36.5 36.5 v 3.5 3.5 z"
     id="path59" />
  <path
     style="fill:#000000"
     d="m 887,294 h -27 v -3 -3 h 27 27 v 3 3 z"
     id="path57" />
  <path
     style="fill:#000000"
     d="M 1561.5,295 H 1532 v -3.5 -3.5 h 29.5 29.5 v 3.5 3.5 z"
     id="path55" />
  <path
     style="fill:#000000"
     d="m 2463,296 h -18 v -4.5 -4.5 h 18 18 v 4.5 4.5 z"
     id="path53" />
  <path
     style="fill:#000000"
     d="M 1143.5,296 H 1117 v -4 -4 h 26.5 26.5 v 4 4 z"
     id="path51" />
  <path
     style="fill:#000000"
     d="M 2076,352 H 0 V 324 296 H 270.5 541 v -6.7566 -6.7566 l 0.97612,-3.40353 0.97612,-3.40353 2.27388,-2.43885 2.27388,-2.43886 5,-2.55743 5,-2.55743 h 8.5 8.5 l 5,2.55743 5,2.55743 2.27388,2.43886 2.27388,2.43885 0.97612,3.40353 L 591,282.4868 V 289.2434 296 h 39.5 39.5 v 16 16 l 567.25,-0.0692 567.25,-0.0692 6,-6.9896 6,-6.98959 8.5,-4.04185 8.5,-4.04185 18.25,-0.54116 18.25,-0.54117 v 10.6418 10.6418 l 16.75,0.005 28,0.65279 11.25,0.64824 v -6.90939 -6.90939 l 0.9761,-3.40353 0.9761,-3.40353 2.2739,-2.43885 2.2739,-2.43886 5,-2.55743 5,-2.55743 h 8.5 8.5 l 5,2.55743 5,2.55743 2.2739,2.43886 2.2739,2.43885 0.9761,3.40353 0.9761,3.40353 v 6.5066 6.5066 l 685.4836,-0.27511 685.4837,-0.27511 20.2664,-16.92887 20.2663,-16.92886 22.6667,-0.046 22.6666,-0.046 0.3334,-0.8011 27.0756,-17.5 L 3486.9846,257 h 12.9244 12.9243 l 0.3334,-0.79743 18.5082,-15.5 L 3549.8498,226 h 22.4765 22.4765 l 20.5538,-15.5 20.5538,-15.5 H 3893.9552 4152 v 78.5 78.5 z"
     id="path2995" />
</svg>
