<?xml version="1.0" encoding="UTF-8" standalone="no"?>
<!-- Created with Inkscape (http://www.inkscape.org/) -->

<svg
   xmlns:dc="http://purl.org/dc/elements/1.1/"
   xmlns:cc="http://creativecommons.org/ns#"
   xmlns:rdf="http://www.w3.org/1999/02/22-rdf-syntax-ns#"
   xmlns:svg="http://www.w3.org/2000/svg"
   xmlns="http://www.w3.org/2000/svg"
   xmlns:xlink="http://www.w3.org/1999/xlink"
   xmlns:sodipodi="http://sodipodi.sourceforge.net/DTD/sodipodi-0.dtd"
   xmlns:inkscape="http://www.inkscape.org/namespaces/inkscape"
   id="svg2985"
   version="1.1"
   inkscape:version="0.48.4 r9939"
   width="4152"
   height="352"
   sodipodi:docname="collision.pbm">
  <metadata
     id="metadata2991">
    <rdf:RDF>
      <cc:Work
         rdf:about="">
        <dc:format>image/svg+xml</dc:format>
        <dc:type
           rdf:resource="http://purl.org/dc/dcmitype/StillImage" />
        <dc:title></dc:title>
      </cc:Work>
    </rdf:RDF>
  </metadata>
  <defs
     id="defs2989" />
  <sodipodi:namedview
     pagecolor="#ffffff"
     bordercolor="#666666"
     borderopacity="1"
     objecttolerance="10"
     gridtolerance="10"
     guidetolerance="10"
     inkscape:pageopacity="0"
     inkscape:pageshadow="2"
     inkscape:window-width="1920"
     inkscape:window-height="1017"
     id="namedview2987"
     showgrid="false"
     inkscape:zoom="0.4238921"
     inkscape:cx="2076"
     inkscape:cy="176"
     inkscape:window-x="1912"
     inkscape:window-y="-8"
     inkscape:window-maximized="1"
     inkscape:current-layer="svg2985" />
  <image
     width="4152"
     height="352"
     xlink:href="file:///D:/%5BSchool%5D/%5BDAE%5D/%5B2nd%20Semester%5D/%5BExam%5D/Programming/R&amp;D/Background/Assets/collision.pbm"
     id="image2993"
     x="0"
     y="0" />
  <path
     style="fill:#000000"
     d="m 2076,352 -2076,0 0,-28 0,-28 270.5,0 270.5,0 0,-6.7566 0,-6.7566 0.97612,-3.40353 0.97612,-3.40353 2.27388,-2.43885 2.27388,-2.43886 5,-2.55743 5,-2.55743 8.5,0 8.5,0 5,2.55743 5,2.55743 2.27388,2.43886 2.27388,2.43885 0.97612,3.40353 0.97612,3.40353 0,6.7566 0,6.7566 39.5,0 39.5,0 0,16 0,16 567.25,-0.0692 567.25,-0.0692 6,-6.9896 6,-6.98959 8.5,-4.04185 8.5,-4.04185 18.25,-0.54116 18.25,-0.54117 0,10.6418 0,10.6418 16.75,0.005 c 9.2125,0.002 21.8125,0.29625 28,0.65279 l 11.25,0.64824 0,-6.90939 0,-6.90939 0.9761,-3.40353 0.9761,-3.40353 2.2739,-2.43885 2.2739,-2.43886 5,-2.55743 5,-2.55743 8.5,0 8.5,0 5,2.55743 5,2.55743 2.2739,2.43886 2.2739,2.43885 0.9761,3.40353 0.9761,3.40353 0,6.5066 0,6.5066 685.4836,-0.27511 685.4837,-0.27511 20.2664,-16.92887 20.2663,-16.92886 22.6667,-0.046 22.6666,-0.046 0.3334,-0.8011 c 0.1833,-0.4406 12.3673,-8.3156 27.0756,-17.5 L 3486.9846,257 l 12.9244,0 12.9243,0 0.3334,-0.79743 c 0.1833,-0.43858 8.512,-7.41358 18.5082,-15.5 L 3549.8498,226 l 22.4765,0 22.4765,0 20.5538,-15.5 20.5538,-15.5 258.0448,0 258.0448,0 0,78.5 0,78.5 -2076,0 z m -932.5,-56 -26.5,0 0,-4 0,-4 26.5,0 26.5,0 0,4 0,4 -26.5,0 z m 1319.5,0 -18,0 0,-4.5 0,-4.5 18,0 18,0 0,4.5 0,4.5 -18,0 z m -901.5,-1 -29.5,0 0,-3.5 0,-3.5 29.5,0 29.5,0 0,3.5 0,3.5 -29.5,0 z m -674.5,-1 -27,0 0,-3 0,-3 27,0 27,0 0,3 0,3 -27,0 z m 1414.5,-32 -36.5,0 0,-3.5 0,-3.5 36.5,0 36.5,0 0,3.5 0,3.5 -36.5,0 z m -193,-1 -37.5,0 0,-3 0,-3 37.5,0 37.5,0 0,3 0,3 -37.5,0 z m -1083,-4 -78.5,0 0,-4.5 0,-4.5 78.5,0 78.5,0 0,4.5 0,4.5 -78.5,0 z m 1454,-1 -17.5,0 0,-4.5 0,-4.5 17.5,0 17.5,0 0,4.5 0,4.5 -17.5,0 z m 144,-1 -40.5,0 0,-4 0,-4 40.5,0 40.5,0 0,4 0,4 -40.5,0 z m -1381,-1 -63.5,0 0,-3 0,-3 63.5,0 63.5,0 0,3 0,3 -63.5,0 z m 198.5,0 -75,0 0,-3 0,-3 75,0 75,0 0,3 0,3 -75,0 z M 2374.25,220.98295 2354,221 l 0,-3 0,-3 17.8788,0 17.8789,0 5.8123,-3.5 5.8123,-3.5 67.8089,0 67.8088,0 0,3.5 0,3.5 -66.25,0.0171 -66.25,0.017 -5,2.9659 -5,2.9659 -20.25,0.017 z M 2719.5,215 l -25.5,0 0,-4 0,-4 25.5,0 25.5,0 0,4 0,4 -25.5,0 z m -540,-2 -21.5,0 0,-3 0,-3 21.5,0 21.5,0 0,3 0,3 -21.5,0 z"
     id="path2995"
     inkscape:connector-curvature="0" />
</svg>
