<?xml version="1.0" encoding="UTF-8" standalone="no"?>
<!-- Created with Inkscape (http://www.inkscape.org/) -->

<svg
   xmlns:dc="http://purl.org/dc/elements/1.1/"
   xmlns:cc="http://creativecommons.org/ns#"
   xmlns:rdf="http://www.w3.org/1999/02/22-rdf-syntax-ns#"
   xmlns:svg="http://www.w3.org/2000/svg"
   xmlns="http://www.w3.org/2000/svg"
   xmlns:xlink="http://www.w3.org/1999/xlink"
   xmlns:sodipodi="http://sodipodi.sourceforge.net/DTD/sodipodi-0.dtd"
   xmlns:inkscape="http://www.inkscape.org/namespaces/inkscape"
   id="svg2985"
   version="1.1"
   inkscape:version="0.48.2 r9819"
   width="4153"
   height="304"
   sodipodi:docname="mission1_level_black white.bmp">
  <metadata
     id="metadata2991">
    <rdf:RDF>
      <cc:Work
         rdf:about="">
        <dc:format>image/svg+xml</dc:format>
        <dc:type
           rdf:resource="http://purl.org/dc/dcmitype/StillImage" />
        <dc:title></dc:title>
      </cc:Work>
    </rdf:RDF>
  </metadata>
  <defs
     id="defs2989" />
  <sodipodi:namedview
     pagecolor="#ffffff"
     bordercolor="#666666"
     borderopacity="1"
     objecttolerance="10"
     gridtolerance="10"
     guidetolerance="10"
     inkscape:pageopacity="0"
     inkscape:pageshadow="2"
     inkscape:window-width="640"
     inkscape:window-height="480"
     id="namedview2987"
     showgrid="false"
     inkscape:zoom="0.59932961"
     inkscape:cx="284.46278"
     inkscape:cy="36.669422"
     inkscape:window-x="0"
     inkscape:window-y="0"
     inkscape:window-maximized="1"
     inkscape:current-layer="svg2985" />
  <image
     width="4153"
     height="304"
     xlink:href="file:///C:/Users/User/Documents/1%20school/programming%202/03_Poject/Oplossing/DAE8_Veeckman%20Andreas/CODE/MetalSlug/Data/mission1_level_black%20white.bmp"
     id="image2993"
     x="-3.7279995e-007"
     y="-5.5486507e-006" />
  <path
     style="fill:#000000"
     d="m 2076.5,303.99999 -2076.50000037280005,0 0,-31 0,-31 L 18.25,242.01139 c 10.0375,0.006 114.325,1.12562 231.75,2.48741 l 213.5,2.47598 106.75,0.0126 106.75,0.0126 0,16.5 0,16.5 559.25,-0.0448 559.25,-0.0448 13.5,-12.42332 13.5,-12.42332 29.25,-0.0318 29.25,-0.032 0,11.5 0,11.5 730.8388,0 730.8387,0 20.2515,-21 20.2515,-21 26.9475,0 26.9476,0 16.8568,-14.5 16.8569,-14.5 24.3553,-0.0268 24.3554,-0.0268 13.338,-14.47316 13.338,-14.47316 27.6832,0 27.6832,0 18.8821,-16.5 18.882,-16.5 256.8468,0 256.8467,0 0,79.5 0,79.5 -2076.5,0 z m -1189,-50 -33.5,0 0,-8 0,-8 33.5,0 33.5,0 0,8 0,8 -33.5,0 z m 255.5,0 -33,0 0,-7.5 0,-7.5 33,0 33,0 0,7.5 0,7.5 -33,0 z m 416.5,-1 -33.5,0 0,-6.5 0,-6.5 33.5,0 33.5,0 0,6.5 0,6.5 -33.5,0 z m 903,-1 -18.5,0 0,-6.5 0,-6.5 18.5,0 18.5,0 0,6.5 0,6.5 -18.5,0 z m 424,-17 -17.5,0 0,-6 0,-6 12,0 12,0 0,-8 0,-8 29.5,0 29.5,0 0,8.5 0,8.5 -24,0 -24,0 0,5.5 0,5.5 -17.5,0 z m -779.5,-15 -38,0 0,-5.5 0,-5.5 38,0 38,0 0,5.5 0,5.5 -38,0 z m 192,-1 -38,0 0,-5.5 0,-5.5 38,0 38,0 0,5.5 0,5.5 -38,0 z m -1274,-5 -89,0 0,-6.5 0,-6.5 89,0 89,0 0,6.5 0,6.5 -89,0 z m 1455,-2 -18,0 0,-6.5 0,-6.5 18,0 18,0 0,6.5 0,6.5 -18,0 z m 135,-1 -47,0 0,-6 0,-6 47,0 47,0 0,6 0,6 -47,0 z m -1177,-2 -83,0 0,-5 0,-5 83,0 83,0 0,5 0,5 -83,0 z m -195,-3 -71,0 0,-3 0,-3 71,0 71,0 0,3 0,3 -71,0 z m 1911.5,-24 -54.5,0 0,-3.5 0,-3.5 54.5,0 54.5,0 0,3.5 0,3.5 -54.5,0 z m -785,-3 -23.5,0 0,-5.5 0,-5.5 23.5,0 23.5,0 0,5.5 0,5.5 -23.5,0 z m -190,-8 -21.5,0 0,-6 0,-6 21.5,0 21.5,0 0,6 0,6 -21.5,0 z m 288.5,-2 -71,0 0,-5 0,-5 71,0 71,0 0,5 0,5 -71,0 z m 251.5,0 -25.5,0 0,-5 0,-5 25.5,0 25.5,0 0,5 0,5 -25.5,0 z"
     id="path2995"
     inkscape:connector-curvature="0" />
</svg>
